# xmcd
#
# Track frame offsets:
#	150
#	11195
#	23399
#	39633
#	54094
#	72301
#	91429
#	105867
#	123218
#	145048
#	159825
#	174539
#
# Disc length: 2587 seconds
#
# Revision: 0
# Processed by: cddbd v1.5.2PL0 Copyright (c) Steve Scherf et al.
# Submitted via: audiograbber 1.83.01
#
DISCID=870a190c
DTITLE=Garth Brooks - Gunslinger
DYEAR=2016
DGENRE=Country
TTITLE0=Honky-Tonk Somewhere
TTITLE1=Weekend
TTITLE2=Ask Me How I Know
TTITLE3=Baby, Let's Lay Down And Dance
TTITLE4=He Really Loves You
TTITLE5=Whiskey To Wine
TTITLE6=Bang! Bang!
TTITLE7=Pure Adrenaline
TTITLE8=8teen
TTITLE9=Sugarcane
TTITLE10=Cowboys And Friends
TTITLE11=Friends In Low Places
EXTD=
EXTT0=
EXTT1=
EXTT2=
EXTT3=
EXTT4=
EXTT5=
EXTT6=
EXTT7=
EXTT8=
EXTT9=
EXTT10=
EXTT11=
PLAYORDER=
